<?xml version="1.0" standalone="no"?>
<!DOCTYPE svg PUBLIC "-//W3C//DTD SVG 20010904//EN"
 "http://www.w3.org/TR/2001/REC-SVG-20010904/DTD/svg10.dtd">
<svg version="1.0" xmlns="http://www.w3.org/2000/svg"
 width="216.000000pt" height="216.000000pt" viewBox="0 0 216.000000 216.000000"
 preserveAspectRatio="xMidYMid meet">
<metadata>
Created by potrace 1.11, written by Peter Selinger 2001-2013
</metadata>
<g transform="translate(0.000000,216.000000) scale(0.100000,-0.100000)"
fill="#000000" stroke="none">
<path d="M1345 1802 c-222 -122 -550 -351 -855 -596 -190 -152 -420 -365 -420
-388 0 -14 53 20 148 96 178 141 185 145 388 227 109 44 201 78 205 77 3 -2
-66 -85 -155 -184 -88 -100 -168 -190 -176 -200 -216 -270 -338 -428 -353
-461 -9 -21 -8 -27 8 -39 23 -17 46 -18 67 -1 8 6 66 80 128 162 97 129 248
314 341 420 60 69 287 321 319 355 25 27 61 48 125 73 325 129 354 144 355
174 0 31 -50 23 -176 -28 -71 -28 -132 -53 -136 -56 -18 -10 0 10 137 152 158
163 204 220 189 235 -26 26 -69 20 -139 -18z m-76 -127 c-2 -2 -77 -78 -167
-168 -160 -160 -165 -165 -250 -200 -48 -19 -124 -51 -169 -71 -46 -19 -83
-33 -83 -31 0 6 300 223 491 354 158 109 191 131 178 116z"/>
<path d="M1058 1233 c-19 -21 -76 -93 -126 -161 -98 -132 -106 -161 -44 -153
7 1 61 29 120 61 158 89 287 134 298 106 11 -28 -68 -166 -182 -321 -138 -186
-142 -195 -105 -215 52 -27 79 -3 224 200 149 209 191 320 140 374 -29 32 -59
40 -123 32 -62 -8 -128 -29 -202 -67 -32 -16 -58 -27 -58 -25 0 1 25 44 55 94
30 50 55 96 55 102 0 19 -16 10 -52 -27z"/>
<path d="M2027 1136 c-12 -13 -71 -56 -132 -96 -200 -132 -371 -200 -389 -155
-24 63 181 210 333 240 57 11 62 13 39 20 -84 22 -282 -59 -380 -156 -53 -52
-60 -67 -60 -114 0 -30 3 -35 32 -50 64 -33 200 -7 332 64 32 17 60 31 63 31
2 0 -8 -21 -23 -47 -57 -99 -104 -201 -97 -213 4 -6 18 -15 32 -21 46 -17 65
4 153 166 37 70 71 126 166 277 29 46 30 54 5 68 -30 16 -50 12 -74 -14z"/>
</g>
</svg>
